<svg xmlns="http://www.w3.org/2000/svg" version="1.1" xmlns:xlink="http://www.w3.org/1999/xlink" xmlns:svgjs="http://svgjs.dev/svgjs" width="2000" height="2250" viewBox="0 0 2000 2250"><g transform="matrix(1,0,0,1,3.410605131648481e-13,0)"><svg viewBox="0 0 320 360" data-background-color="#ffffff" preserveAspectRatio="xMidYMid meet" height="2250" width="2000" xmlns="http://www.w3.org/2000/svg" xmlns:xlink="http://www.w3.org/1999/xlink"><g id="tight-bounds" transform="matrix(1,0,0,1,0,0)"><svg viewBox="0 0 320 360" height="360" width="320"><g><svg></svg></g><g><svg viewBox="0 0 320 360" height="360" width="320"><g><path xmlns="http://www.w3.org/2000/svg" d="M20.961 227.22l3.726 4.658-1.863-6.056c-0.466-2.795-3.726 0.466-1.863 1.398M25.153 224.425c1.397 2.329 2.795 4.658 2.795 6.987 0 3.261 2.795 4.658 5.123 5.589-3.261-3.726-5.124-13.974-7.918-12.576M204.017 26.929c7.918 0 15.371-0.932 23.756 0.931 20.495 5.124 37.729 15.371 49.374 29.811l32.606 52.169c1.397 13.042 4.192 27.482 3.726 43.319 3.261 0 2.795-4.658 6.521-5.59-3.726 9.316-5.59 20.961-6.521 34.469-2.329-7.453 0-18.632 0.466-24.687-3.261 5.124-5.124 1.397-5.124-0.932 0.466-3.726-1.397-3.261-2.795-4.658-5.124-4.658-8.384-9.782-12.11-17.7 2.329-6.055 2.795-14.905-4.658-19.563-2.329-1.397-5.124-3.726-6.521-7.453-1.863-5.124-5.124-11.179-4.193-19.097 0.466-2.329-6.987 5.124-11.179 1.863-18.166-12.576-36.332-27.016-58.224-39.127-11.645 0-20.029-4.192-24.221-9.316-3.726-4.658-0.932-10.713 4.658-11.179 3.261 0 6.987-0.932 9.782 0.932 0.466-1.863 2.329-4.192 4.657-4.192M157.904 16.215l0.932 0.466c4.658 0.932 6.987 7.453 12.11 5.124 0 3.261 0.466 6.521-0.466 8.85-1.397 3.726-5.59 3.726-8.85 3.726-31.208-1.863-49.374 11.179-68.471 22.358-5.124 3.261-10.713 5.59-14.906 9.782-20.029 18.632-41.921 35.866-47.045 70.335l-4.192 38.195c-0.466 4.192-5.124 8.384-4.192 13.508l3.26 22.824c-3.261-3.261-5.124 0.932-4.192 2.795 0.466 1.397 2.329 6.055 5.124 1.863 3.726 6.987 7.453 20.495 12.576 26.55 15.837 18.632 36.332 35.4 53.101 52.169 4.192-0.932 7.453-0.932 8.384-3.727 1.397 2.795-1.397 5.59-3.726 6.056 7.453 4.658 15.837 8.85 27.016 9.781 14.44 0.932 27.948 3.261 40.524 6.522 6.521-1.863 13.042-2.795 20.029-3.261 2.329 0 3.726-3.726 6.521-4.658l0.466-4.658c2.795 4.192 2.329-1.397 0.466-4.192 3.261 2.795 4.192 5.124 5.589 6.987 0-1.397 3.726-6.521 3.727-0.466l0.931-6.055c1.397-0.932 1.863 5.124 3.261 0.931 1.397-4.192 4.192-0.932 6.987-2.329-0.932 1.863-0.466 5.59 2.794 3.261l3.727-3.261c2.329 5.59 6.055 3.261 7.918 2.329 20.495-13.042 40.99-28.413 60.553-43.784l-0.466 6.055 2.329-7.453c2.329 2.329 4.192 0.466 5.124-0.931 2.795-4.658 6.521-9.316 12.577-13.508-7.453 20.029-16.303 35.866-27.482 48.908l-4.658 5.59c0 3.261-0.932 7.453-4.658 7.918-1.863 0.466-5.59-0.932-8.384 1.863-1.397 1.863 3.261 5.59-0.466 2.795-3.261-2.329-6.521 0-10.248 0.932-2.795 0.932 1.863 3.726 2.795 5.589 0.932 1.863 1.863 3.726 1.398 6.056l-5.124-5.59c-6.055 3.261-9.782 9.316-14.906 13.974-2.329 1.863-1.397 5.124-1.397 7.918-3.261 0-6.987-0.932-8.85 0.932-1.397 1.863-0.932 4.658-0.932 7.453-4.658-0.466-5.124-7.453-9.315-6.056-4.192 0.932-8.85 1.397-12.577 3.727 2.795 5.59-4.658 2.329-3.726 3.26-6.987-4.192-13.042-7.453-20.495-4.658-15.837-5.124-35.4-2.795-49.84-0.931 0-2.329 0.466-4.658-0.466-5.124-0.932 2.329-3.726 1.397-3.26 1.397-8.85-6.055-17.7-9.782-27.016-14.905-8.384 0.932-16.303-3.261-18.632-5.59-6.521-6.055-13.974-2.795-20.029-4.192-13.042-3.261-17.7-16.769-19.098-26.084-0.932-4.658-4.658-6.521-6.055-6.056-6.055-19.563-15.371-37.263-22.824-55.429-1.863-4.658-1.397-9.316-1.397-14.44 2.329 0.932 4.658 0.466 4.192-2.794-2.329-15.371-7.918-27.016-13.974-38.195 3.261-15.837 3.726-34.469 11.179-48.443 6.521-12.576 18.632-19.098 27.016-29.811 2.795-3.726 2.795-8.85 5.59-12.11 9.316-9.316 18.632-19.098 28.879-27.482 4.658-3.726 10.247 0 17.234-1.397 2.329-8.384 11.645-15.837 20.495-13.508 3.726 0.932 11.179-8.85 13.508-9.782 3.726-1.397 1.863 3.726 1.863 6.987 8.85-6.987 20.961-10.713 32.14-14.906" fill="#f6096c" fill-rule="nonzero" stroke="none" stroke-width="1" stroke-linecap="butt" stroke-linejoin="miter" stroke-miterlimit="10" stroke-dasharray="" stroke-dashoffset="0" font-family="none" font-weight="none" font-size="none" text-anchor="none" style="mix-blend-mode: normal" data-fill-palette-color="tertiary"></path></g><g transform="matrix(1,0,0,1,81.95005883972298,90)"><svg viewBox="0 0 156.09988232055403 180" height="180" width="156.09988232055403"><g><svg viewBox="0 0 156.09988232055403 180" height="180" width="156.09988232055403"><g><svg viewBox="0 0 192 221.3967075838686" height="180" width="156.09988232055403"><g transform="matrix(1,0,0,1,0,131.73789081189847)"><svg viewBox="0 0 192 89.65881677197014" height="89.65881677197014" width="192"><g id="textblocktransform"><svg viewBox="0 0 192 89.65881677197014" height="89.65881677197014" width="192" id="textblock"><g><svg viewBox="0 0 192 89.65881677197014" height="89.65881677197014" width="192"><g transform="matrix(1,0,0,1,0,0)"><svg width="192" viewBox="0 -38.43000030517578 85 39.70000076293945" height="89.65881677197014" data-palette-color="#f70b6e"><path d="M35.94 0L35.94 0 32.23 0.34Q29.54-16.5 26.42-28.52L26.42-28.52Q24.8-24.71 22.88-17.8 20.95-10.89 20.21-8.84L20.21-8.84Q20.12-8.84 19.9-8.81 19.68-8.79 19.53-8.79L19.53-8.79Q18.85-8.79 17.29-8.94 15.72-9.08 15.28-9.08L15.28-9.08Q15.23-10.5 12.79-18.53 10.35-26.56 9.86-28.81L9.86-28.81Q8.98-20.9 3.03 0L3.03 0 0-0.29Q0.68-5.62 3.37-17.04 6.05-28.47 6.54-34.72L6.54-34.72Q7.42-34.81 7.96-34.81L7.96-34.81Q8.45-34.81 11.57-34.42L11.57-34.42Q12.26-34.33 13.55-30 14.84-25.68 16.16-20.51 17.48-15.33 17.82-14.4L17.82-14.4Q19.19-17.77 21.12-25.34 23.05-32.91 23.83-34.96L23.83-34.96Q24.61-34.91 28.76-34.52L28.76-34.52Q30.03-29.59 31.23-23.88 32.42-18.16 33.81-10.89 35.21-3.61 35.94 0ZM39.69-21.09L39.69-21.09 38.72-23.58Q39.99-24.85 41.94-25.61 43.89-26.37 45.8-26.37L45.8-26.37Q54.05-26.37 54.05-12.11L54.05-12.11Q54.05-10.16 53.83-6.35 53.61-2.54 53.61-0.63L53.61-0.63Q53.22 0.88 52.1 0.88L52.1 0.88Q51.22 0.88 50.49 0 49.75-0.88 49.75-1.95L49.75-1.95Q49.75-2.29 49.8-2.44L49.8-2.44Q46.77 0.49 43.36 0.49L43.36 0.49Q40.77 0.49 38.84-1.39 36.91-3.27 36.91-5.96L36.91-5.96Q36.91-10.5 40.45-14.16 43.99-17.82 48.48-17.82L48.48-17.82Q48.68-17.82 48.87-17.8 49.07-17.77 49.34-17.72 49.61-17.68 49.75-17.68L49.75-17.68Q49.36-23.39 45.21-23.39L45.21-23.39Q42.77-23.39 39.69-21.09ZM49.9-5.81L49.9-5.81Q50-9.23 50-10.99L50-10.99Q50-12.45 49.9-15.09L49.9-15.09 49.51-15.09Q46.04-15.04 43.19-12.5 40.33-9.96 40.33-6.35L40.33-6.35Q40.33-4.79 41.28-3.86 42.23-2.93 43.6-2.93L43.6-2.93Q45.75-2.93 49.9-5.81ZM76.22-37.3L75.58 1.27 72.9 0.73Q72.9-0.24 72.85-0.73L72.85-0.73Q70.26 0.93 67.38 0.93L67.38 0.93Q62.93 0.93 60.47-2.88 58-6.69 58-11.52L58-11.52Q58-14.01 58.37-16.21 58.74-18.41 59.64-20.73 60.54-23.05 62.47-24.41 64.4-25.78 67.13-25.78L67.13-25.78Q69.82-25.78 72.16-24.46L72.16-24.46Q72.55-29.64 72.55-34.91L72.55-34.91Q72.55-37.3 72.5-38.43L72.5-38.43Q74.85-37.99 76.22-37.3L76.22-37.3ZM72.46-3.96L72.46-3.96 72.31-19.68Q71.72-20.9 70.48-21.61 69.23-22.31 67.82-22.31L67.82-22.31Q65.91-22.31 64.57-21.09 63.23-19.87 62.67-17.85 62.1-15.82 61.88-14.06 61.66-12.3 61.66-10.35L61.66-10.35Q61.66-2.05 67.23-2.05L67.23-2.05Q69.09-2.05 70.62-2.56 72.16-3.08 72.46-3.96ZM81.24-25.1L81.24-25.1 83.49-24.61Q83.88-20.61 84.17-12.04 84.47-3.47 84.56-1.42L84.56-1.42Q84.12 0.1 82.85 0.1L82.85 0.1Q81.97 0.1 81.17-0.61 80.36-1.32 80.17-2.34L80.17-2.34Q80.27-4.35 80.56-12.77 80.85-21.19 81.24-25.1ZM81.93-33.84L81.93-33.84Q83.24-33.84 84.12-32.69 85-31.54 85-30.08L85-30.08Q85-29 84.49-28.34 83.98-27.69 83.1-27.69L83.1-27.69Q81.73-27.69 80.95-28.81 80.17-29.93 80.17-31.45L80.17-31.45Q80.17-32.52 80.63-33.18 81.1-33.84 81.93-33.84Z" opacity="1" transform="matrix(1,0,0,1,0,0)" fill="#f70b6e" class="undefined-text-0" data-fill-palette-color="primary" id="text-0"></path></svg></g></svg></g></svg></g></svg></g><g transform="matrix(1,0,0,1,36.672,0)"><svg viewBox="0 0 118.656 118.6545176332655" height="118.6545176332655" width="118.656"><g><svg xmlns="http://www.w3.org/2000/svg" xmlns:xlink="http://www.w3.org/1999/xlink" version="1.0" x="0" y="0" viewBox="10 10 80.0009994506836 80" enable-background="new 0 0 100 100" xml:space="preserve" height="118.6545176332655" width="118.656" class="icon-icon-0" data-fill-palette-color="accent" id="icon-0"><path fill="none" stroke="#EE1D67" stroke-linecap="round" stroke-linejoin="round" stroke-miterlimit="10" d="M25 69.998L22.499 90 25 69.998z"></path><path fill="none" stroke="#EE1D67" stroke-linecap="round" stroke-linejoin="round" stroke-miterlimit="10" d="M47.5 49.169c-1.557 0.927-3.238 1.454-4.999 1.454-2.249 0-4.371-0.833-6.26-2.294v0.548c0 1.844-0.744 3.514-1.953 4.717-0.616 0.615-1.351 1.109-2.167 1.445l-18.755 7.773C11.285 64.893 10 67.762 10 70.936V90h37.5V49.169z"></path><path fill="none" stroke="#EE1D67" stroke-linecap="round" stroke-linejoin="round" stroke-miterlimit="10" d="M47.5 10.912C45.943 10.327 44.262 10 42.501 10c-7.262 0-13.239 5.446-14.104 12.478v4.059c-1.84 0.654-3.163 2.391-3.163 4.454 0 4.038 2.05 7.311 4.606 7.424 2.35 7.242 7.131 12.209 12.66 12.209 1.761 0 3.442-0.506 4.999-1.429V10.912z"></path><path fill="none" stroke="#EE1D67" stroke-linecap="round" stroke-linejoin="round" stroke-miterlimit="10" d="M77.272 53.51l-2.653-2.652L77.272 53.51z"></path><circle fill="none" stroke="#EE1D67" stroke-linecap="round" stroke-linejoin="round" stroke-miterlimit="10" cx="77.499" cy="77.498" r="5.7"></circle><path fill="none" stroke="#EE1D67" stroke-linecap="round" stroke-linejoin="round" stroke-miterlimit="10" d="M81.088 86.158c1.466-0.605 3.117-0.002 3.891 1.338 0.956-0.717 1.802-1.564 2.517-2.52-1.34-0.771-1.942-2.424-1.335-3.893 0.608-1.467 2.203-2.207 3.695-1.805 0.084-0.582 0.143-1.174 0.143-1.781 0-0.605-0.059-1.195-0.143-1.777-1.492 0.402-3.089-0.344-3.695-1.809-0.607-1.469-0.005-3.121 1.335-3.891-0.715-0.957-1.562-1.805-2.517-2.521-0.773 1.344-2.427 1.947-3.893 1.34-1.468-0.609-2.212-2.203-1.807-3.699C78.695 65.059 78.104 65 77.5 65c-0.608 0-1.197 0.059-1.781 0.141 0.403 1.496-0.341 3.09-1.807 3.699-1.468 0.607-3.12 0.004-3.89-1.336-0.956 0.717-1.802 1.561-2.519 2.518 1.342 0.77 1.944 2.426 1.337 3.891-0.608 1.467-2.203 2.211-3.698 1.809-0.085 0.582-0.142 1.172-0.142 1.777 0 0.607 0.057 1.199 0.142 1.781 1.495-0.402 3.09 0.342 3.698 1.809 0.607 1.467 0.005 3.121-1.337 3.893 0.717 0.955 1.563 1.799 2.519 2.516 0.77-1.34 2.423-1.943 3.89-1.338 1.466 0.611 2.21 2.205 1.807 3.701C76.303 89.941 76.892 90 77.5 90c0.606 0 1.197-0.059 1.779-0.141C78.876 88.363 79.622 86.77 81.088 86.158z"></path><path fill="none" stroke="#EE1D67" stroke-linecap="round" stroke-linejoin="round" stroke-miterlimit="10" d="M86.59 36.65v-3.304V36.65z"></path><path fill="none" stroke="#EE1D67" stroke-linecap="round" stroke-linejoin="round" stroke-miterlimit="10" d="M78.777 10.357c-0.475-0.475-1.25-0.475-1.728 0.004l0 0L58.892 28.513 55.003 35l6.482-3.889 18.159-18.159 0 0c0.477-0.476 0.476-1.251 0-1.727L78.777 10.357z"></path><path fill="none" stroke="#EE1D67" stroke-linecap="round" stroke-linejoin="round" stroke-miterlimit="10" d="M75.32 12.086l2.595 2.595L75.32 12.086z"></path><path fill="none" stroke="#EE1D67" stroke-linecap="round" stroke-linejoin="round" stroke-miterlimit="10" d="M73.591 13.816l2.595 2.595L73.591 13.816z"></path><path fill="none" stroke="#EE1D67" stroke-linecap="round" stroke-linejoin="round" stroke-miterlimit="10" d="M58.892 28.516l2.594 2.595L58.892 28.516z"></path><path fill="none" stroke="#EE1D67" stroke-linecap="round" stroke-linejoin="round" stroke-miterlimit="10" d="M83.902 56.6L71.527 44.229c-1.464-1.464-3.839-1.464-5.304 0l0 0L47.5 62.953v15.578l7.234 7.238c1.465 1.465 3.838 1.469 5.303 0l6.528-6.527c-0.462-0.094-0.946-0.094-1.423 0.037-0.085-0.582-0.142-1.174-0.142-1.781 0-0.605 0.057-1.195 0.142-1.777 1.495 0.402 3.09-0.342 3.698-1.809 0.607-1.465 0.005-3.121-1.337-3.891 0.717-0.957 1.563-1.801 2.519-2.518 0.77 1.34 2.422 1.943 3.89 1.336 1.466-0.609 2.21-2.203 1.807-3.699C76.303 65.059 76.892 65 77.5 65c0.604 0 1.195 0.059 1.779 0.141-0.13 0.479-0.13 0.965-0.038 1.426l4.659-4.66h0.002C85.366 60.441 85.366 58.064 83.902 56.6z"></path><path fill="none" stroke="#EE1D67" stroke-linecap="round" stroke-linejoin="round" stroke-miterlimit="10" d="M65.34 45.115L47.5 62.953v6.748l14.304 14.305 4.765-4.764c-0.463-0.094-0.949-0.094-1.426 0.037-0.085-0.582-0.142-1.174-0.142-1.781 0-0.605 0.057-1.195 0.142-1.777 1.495 0.402 3.09-0.342 3.698-1.809 0.607-1.465 0.005-3.121-1.337-3.891 0.717-0.957 1.563-1.801 2.519-2.518 0.77 1.34 2.422 1.943 3.89 1.336 1.466-0.609 2.21-2.203 1.807-3.699C76.303 65.059 76.892 65 77.5 65c0.604 0 1.195 0.059 1.779 0.141-0.13 0.479-0.13 0.965-0.038 1.43l3.777-3.779L65.34 45.115z"></path><path fill="none" stroke="#EE1D67" stroke-linecap="round" stroke-linejoin="round" stroke-miterlimit="10" d="M86.692 16.817H75.779L61.485 31.111 55.003 35l3.889-6.486 11.697-11.696H47.5v36.367h9.771l8.953-8.955 0 0c1.465-1.464 3.84-1.464 5.304 0l8.954 8.955h6.211c1.826 0 3.308-1.482 3.308-3.308V20.125C90 18.298 88.519 16.817 86.692 16.817z"></path><path fill="none" stroke="#EE1D67" stroke-linecap="round" stroke-linejoin="round" stroke-miterlimit="10" d="M73.505 19.09l-12.02 12.021L55.003 35l3.889-6.486 9.425-9.423H47.5v31.82h12.044l6.68-6.681 0 0c1.465-1.464 3.84-1.464 5.304 0l6.681 6.681h4.973V19.09H73.505z"></path></svg></g></svg></g><g></g></svg></g></svg></g></svg></g></svg></g><defs></defs></svg><rect width="320" height="360" fill="none" stroke="none" visibility="hidden"></rect></g></svg></g></svg>